Plot

Twelve year old Ryan Billings has been diagnosed with an acute fear of the dark. He
spends each night lying awake in torment...
 
http://www.imdb.com/title/tt0308252/


General
Complete name : Fear of the Dark 2003 DVDRip Xvid BigPerm LKRG\FotD_LRG.avi
Format : AVI
Format/Info : Audio Video Interleave
File size : 665 MiB
Duration : 1h 25mn
Overall bit rate : 1 085 Kbps

Video
ID : 0
Format : MPEG-4 Visual
Format profile : Advanced Simple@L5
Format settings, BVOP : Yes
Format settings, QPel : No
Format settings, GMC : No warppoints
Format settings, Matrix : Default (H.263)
Codec ID : XVID
Codec ID/Hint : XviD
Duration : 1h 25mn
Bit rate : 886 Kbps
Width : 704 pixels
Height : 396 pixels
Display aspect ratio : 16:9
Frame rate : 29.970 fps
Color space : YUV
Chroma subsampling : 4:2:0
Bit depth : 8 bits
Scan type : Progressive
Compression mode : Lossy
Bits/(Pixel*Frame) : 0.106
Stream size : 544 MiB (82%)
Writing library : XviD 1.2.1 (UTC 2008-12-04)

Audio
ID : 1
Format : AC-3
Format/Info : Audio Coding 3
Mode extension : CM (complete main)
Codec ID : 2000
Duration : 1h 25mn
Bit rate mode : Constant
Bit rate : 192 Kbps
Channel(s) : 2 channels
Channel positions : Front: L R
Sampling rate : 48.0 KHz
Bit depth : 16 bits
Compression mode : Lossy
Video delay : 33ms
Stream size : 118 MiB (18%)
Alignment : Split accross interleaves
Interleave, duration : 500 ms (14.98 video frames)
Interleave, preload duration : 500 ms
Languge : English
 
http://www.shotpix.com/images/74319977910316682875.png
 
http://www.shotpix.com/images/10867457903356706202.png
 
http://www.shotpix.com/images/47917012410191865833.png
 
http://www.shotpix.com/images/70151356994135200219.png